<?xml version="1.0" encoding="UTF-8" standalone="no"?>
<!-- Created with Inkscape (http://www.inkscape.org/) -->

<svg
   xmlns:dc="http://purl.org/dc/elements/1.1/"
   xmlns:cc="http://creativecommons.org/ns#"
   xmlns:rdf="http://www.w3.org/1999/02/22-rdf-syntax-ns#"
   xmlns:svg="http://www.w3.org/2000/svg"
   xmlns="http://www.w3.org/2000/svg"
   xmlns:sodipodi="http://sodipodi.sourceforge.net/DTD/sodipodi-0.dtd"
   xmlns:inkscape="http://www.inkscape.org/namespaces/inkscape"
   width="600"
   height="300"
   viewBox="0 0 600.00001 300.00001"
   id="svg2"
   version="1.1"
   inkscape:version="0.91 r13725"
   sodipodi:docname="fig_convolution.svg">
  <sodipodi:namedview
     id="base"
     pagecolor="#ffffff"
     bordercolor="#666666"
     borderopacity="1.0"
     inkscape:pageopacity="0.0"
     inkscape:pageshadow="2"
     inkscape:zoom="1.4"
     inkscape:cx="242.91152"
     inkscape:cy="96.713372"
     inkscape:document-units="px"
     inkscape:current-layer="layer2"
     showgrid="false"
     units="px"
     inkscape:window-width="1920"
     inkscape:window-height="1033"
     inkscape:window-x="-4"
     inkscape:window-y="-4"
     inkscape:window-maximized="1" />
  <defs
     id="defs4" />
  <metadata
     id="metadata7">
    <rdf:RDF>
      <cc:Work
         rdf:about="">
        <dc:format>image/svg+xml</dc:format>
        <dc:type
           rdf:resource="http://purl.org/dc/dcmitype/StillImage" />
        <dc:title></dc:title>
      </cc:Work>
    </rdf:RDF>
  </metadata>
  <g
     inkscape:label="colors"
     id="layer2"
     inkscape:groupmode="layer"
     transform="translate(0,-100)">
    <rect
       y="233.57143"
       x="287.85715"
       height="40"
       width="40.714287"
       id="rect4688"
       style="opacity:0.72399998;fill:#ff6600;fill-opacity:1;stroke:none;stroke-width:2;stroke-linecap:butt;stroke-linejoin:round;stroke-miterlimit:4;stroke-dasharray:none;stroke-dashoffset:0;stroke-opacity:1" />
    <rect
       y="192.14287"
       x="61.428574"
       height="40.714287"
       width="40.714287"
       id="rect4690"
       style="opacity:0.72399998;fill:#ff6600;fill-opacity:0.72549021;stroke:none;stroke-width:2;stroke-linecap:butt;stroke-linejoin:round;stroke-miterlimit:4;stroke-dasharray:none;stroke-dashoffset:0;stroke-opacity:1" />
    <rect
       y="192.32144"
       x="246.78571"
       height="121.96429"
       width="41.07143"
       id="rect4726"
       style="opacity:0.72399998;fill:#29ff80;fill-opacity:0.7254902;stroke:none;stroke-width:2;stroke-linecap:butt;stroke-linejoin:round;stroke-miterlimit:4;stroke-dasharray:none;stroke-dashoffset:0;stroke-opacity:1" />
    <rect
       y="273.57144"
       x="287.67859"
       height="40.714287"
       width="81.071426"
       id="rect4728"
       style="opacity:0.72399998;fill:#29ff80;fill-opacity:0.7254902;stroke:none;stroke-width:2;stroke-linecap:butt;stroke-linejoin:round;stroke-miterlimit:4;stroke-dasharray:none;stroke-dashoffset:0;stroke-opacity:1" />
    <rect
       y="192.85715"
       x="328.39288"
       height="80.714287"
       width="40.535713"
       id="rect4730"
       style="opacity:0.72399998;fill:#29ff80;fill-opacity:0.7254902;stroke:none;stroke-width:2;stroke-linecap:butt;stroke-linejoin:round;stroke-miterlimit:4;stroke-dasharray:none;stroke-dashoffset:0;stroke-opacity:1" />
    <rect
       y="192.67857"
       x="287.67859"
       height="40.357143"
       width="40.714287"
       id="rect4734"
       style="opacity:0.72399998;fill:#29ff80;fill-opacity:0.7254902;stroke:none;stroke-width:2;stroke-linecap:butt;stroke-linejoin:round;stroke-miterlimit:4;stroke-dasharray:none;stroke-dashoffset:0;stroke-opacity:1" />
    <rect
       y="150.71429"
       x="20.714285"
       height="122.5"
       width="41.07143"
       id="rect4736"
       style="opacity:0.72399998;fill:#28ff80;fill-opacity:0.52549022;stroke:none;stroke-width:2;stroke-linecap:butt;stroke-linejoin:round;stroke-miterlimit:4;stroke-dasharray:none;stroke-dashoffset:0;stroke-opacity:1" />
    <rect
       y="232.14287"
       x="61.07143"
       height="40.714287"
       width="81.428574"
       id="rect4738"
       style="opacity:0.72399998;fill:#28ff80;fill-opacity:0.52549022;stroke:none;stroke-width:2;stroke-linecap:butt;stroke-linejoin:round;stroke-miterlimit:4;stroke-dasharray:none;stroke-dashoffset:0;stroke-opacity:1" />
    <rect
       y="169.30772"
       x="420.91055"
       height="40.714287"
       width="40.178574"
       id="rect4692"
       style="opacity:0.72399998;fill:#ff6600;fill-opacity:0.7254902;stroke:none;stroke-width:2;stroke-linecap:butt;stroke-linejoin:round;stroke-miterlimit:4;stroke-dasharray:none;stroke-dashoffset:0;stroke-opacity:1" />
    <g
       id="g4777"
       transform="matrix(0.81103512,0,0,0.81103512,302.76879,19.251335)">
      <g
         word-spacing="normal"
         letter-spacing="normal"
         font-size-adjust="none"
         font-stretch="normal"
         font-weight="normal"
         font-variant="normal"
         font-style="normal"
         stroke-miterlimit="10.433"
         xml:space="preserve"
         transform="matrix(0.57142857,0,0,-0.57142857,-100,450)"
         id="content"
         style="font-style:normal;font-variant:normal;font-weight:normal;font-stretch:normal;letter-spacing:normal;word-spacing:normal;text-anchor:start;fill:none;fill-opacity:1;fill-rule:evenodd;stroke:#000000;stroke-linecap:butt;stroke-linejoin:miter;stroke-miterlimit:10.43299961;stroke-dasharray:none;stroke-dashoffset:0;stroke-opacity:1"><path
           id="path4780"
           d="m 472.16,421.25 0.03,0.13 0.04,0.15 0.04,0.16 0.04,0.18 0.06,0.19 0.06,0.21 0.06,0.22 0.07,0.22 0.08,0.23 0.09,0.24 0.1,0.25 0.1,0.24 0.11,0.25 0.12,0.25 0.13,0.25 0.14,0.25 0.15,0.24 0.15,0.24 0.17,0.23 0.18,0.22 0.18,0.22 0.2,0.2 0.21,0.19 0.22,0.18 0.23,0.16 0.25,0.14 0.12,0.07 0.13,0.06 0.14,0.05 0.13,0.05 0.14,0.05 0.14,0.04 0.15,0.03 0.15,0.03 0.15,0.02 0.16,0.02 0.16,0.01 0.16,0 c 0.25,0 1.44,0 2.48,-0.64 -1.39,-0.25 -2.39,-1.5 -2.39,-2.69 0,-0.79 0.55,-1.75 1.89,-1.75 1.1,0 2.69,0.89 2.69,2.89 0,2.6 -2.94,3.28 -4.63,3.28 -2.89,0 -4.64,-2.64 -5.23,-3.78 -1.25,3.28 -3.94,3.78 -5.37,3.78 -5.19,0 -8.04,-6.42 -8.04,-7.67 0,-0.5 0.5,-0.5 0.61,-0.5 0.39,0 0.55,0.11 0.64,0.55 1.69,5.28 4.99,6.53 6.68,6.53 0.95,0 2.68,-0.44 2.68,-3.33 0,-1.54 -0.84,-4.89 -2.68,-11.86 -0.8,-3.09 -2.54,-5.18 -4.74,-5.18 -0.3,0 -1.44,0 -2.48,0.65 1.25,0.24 2.34,1.28 2.34,2.69 0,1.34 -1.09,1.73 -1.84,1.73 -1.5,0 -2.75,-1.29 -2.75,-2.89 0,-2.28 2.5,-3.28 4.68,-3.28 3.3,0 5.08,3.49 5.24,3.78 0.59,-1.84 2.39,-3.78 5.37,-3.78 5.14,0 7.99,6.42 7.99,7.67 0,0.5 -0.45,0.5 -0.61,0.5 -0.44,0 -0.55,-0.2 -0.64,-0.54 -1.64,-5.33 -5.03,-6.53 -6.63,-6.53 -1.95,0 -2.75,1.59 -2.75,3.29 0,1.1 0.3,2.19 0.86,4.38 z"
           inkscape:connector-curvature="0"
           style="fill:#000000;stroke-width:0" /><path
           id="path4782"
           d="m 494.07,440.65 0.03,0.06 0.02,0.05 0.02,0.05 0.02,0.05 0.02,0.04 0.02,0.05 0.02,0.04 0.02,0.04 0.01,0.05 0.02,0.04 0.01,0.03 0.01,0.04 0.01,0.04 0.01,0.03 0.01,0.04 0.01,0.03 0.01,0.03 0.01,0.03 0,0.03 0.01,0.03 0,0.03 0.01,0.03 0,0.03 0,0.02 0.01,0.06 0,0.05 0,0.04 0,0.05 c 0,1.08 -0.98,1.92 -2.06,1.92 -1.33,0 -1.73,-1.09 -1.91,-1.64 l -4.61,-15.09 c -0.03,-0.06 -0.17,-0.52 -0.17,-0.56 0,-0.41 1.08,-0.77 1.36,-0.77 0.25,0 0.28,0.08 0.52,0.59 z"
           inkscape:connector-curvature="0"
           style="fill:#000000;stroke-width:0" /></g>    </g>
  </g>
  <g
     inkscape:label="Layer 1"
     inkscape:groupmode="layer"
     id="layer1"
     transform="translate(0,-752.36216)">
    <g
       id="g4205"
       transform="matrix(0.45022671,0,0,0.45022671,20.978177,803.82453)"
       inkscape:label="Grid_Polar:X5:Y5">
      <g
         id="g4207"
         inkscape:label="MajorXGridlines">
        <path
           id="path4209"
           d="m 90,0 0,450"
           style="fill:none;stroke:#000000;stroke-width:1"
           inkscape:label="MajorXDiv1"
           inkscape:connector-curvature="0" />
        <path
           id="path4211"
           d="m 180,0 0,450"
           style="fill:none;stroke:#000000;stroke-width:1"
           inkscape:label="MajorXDiv2"
           inkscape:connector-curvature="0" />
        <path
           id="path4213"
           d="m 270,0 0,450"
           style="fill:none;stroke:#000000;stroke-width:1"
           inkscape:label="MajorXDiv3"
           inkscape:connector-curvature="0" />
        <path
           id="path4215"
           d="m 360,0 0,450"
           style="fill:none;stroke:#000000;stroke-width:1"
           inkscape:label="MajorXDiv4"
           inkscape:connector-curvature="0" />
      </g>
      <g
         id="g4217"
         inkscape:label="MajorYGridlines">
        <path
           id="path4219"
           d="m 0,90 450,0"
           style="fill:none;stroke:#000000;stroke-width:1"
           inkscape:label="MajorYDiv1"
           inkscape:connector-curvature="0" />
        <path
           id="path4221"
           d="m 0,180 450,0"
           style="fill:none;stroke:#000000;stroke-width:1"
           inkscape:label="MajorYDiv2"
           inkscape:connector-curvature="0" />
        <path
           id="path4223"
           d="m 0,270 450,0"
           style="fill:none;stroke:#000000;stroke-width:1"
           inkscape:label="MajorYDiv3"
           inkscape:connector-curvature="0" />
        <path
           id="path4225"
           d="m 0,360 450,0"
           style="fill:none;stroke:#000000;stroke-width:1"
           inkscape:label="MajorYDiv4"
           inkscape:connector-curvature="0" />
      </g>
      <rect
         id="rect4227"
         x="0"
         y="0"
         inkscape:label="Border"
         height="450"
         width="450"
         style="fill:none;stroke:#000000;stroke-width:2" />
    </g>
    <g
       inkscape:label="Grid_Polar:X3:Y3"
       transform="matrix(0.45115546,0,0,0.45115546,247.15387,845.07473)"
       id="g4275">
      <g
         inkscape:label="MajorXGridlines"
         id="g4277">
        <path
           inkscape:connector-curvature="0"
           inkscape:label="MajorXDiv1"
           style="fill:none;stroke:#000000;stroke-width:1"
           d="m 90,0 0,270"
           id="path4279" />
        <path
           inkscape:connector-curvature="0"
           inkscape:label="MajorXDiv2"
           style="fill:none;stroke:#000000;stroke-width:1"
           d="m 180,0 0,270"
           id="path4281" />
      </g>
      <g
         inkscape:label="MajorYGridlines"
         id="g4283">
        <path
           inkscape:connector-curvature="0"
           inkscape:label="MajorYDiv1"
           style="fill:none;stroke:#000000;stroke-width:1"
           d="m 0,90 270,0"
           id="path4285" />
        <path
           inkscape:connector-curvature="0"
           inkscape:label="MajorYDiv2"
           style="fill:none;stroke:#000000;stroke-width:1"
           d="m 0,180 270,0"
           id="path4287" />
      </g>
      <rect
         style="fill:none;stroke:#000000;stroke-width:2"
         width="270"
         height="270"
         inkscape:label="Border"
         y="0"
         x="0"
         id="rect4289" />
    </g>
    <g
       id="g4339"
       transform="matrix(0.44888086,0,0,0.44888086,420.58805,822.02714)"
       inkscape:label="Grid_Polar:X4:Y4">
      <g
         id="g4341"
         inkscape:label="MajorXGridlines">
        <path
           id="path4343"
           d="m 90,0 0,360"
           style="fill:none;stroke:#000000;stroke-width:1"
           inkscape:label="MajorXDiv1"
           inkscape:connector-curvature="0" />
        <path
           id="path4345"
           d="m 180,0 0,360"
           style="fill:none;stroke:#000000;stroke-width:1"
           inkscape:label="MajorXDiv2"
           inkscape:connector-curvature="0" />
        <path
           id="path4347"
           d="m 270,0 0,360"
           style="fill:none;stroke:#000000;stroke-width:1"
           inkscape:label="MajorXDiv3"
           inkscape:connector-curvature="0" />
      </g>
      <g
         id="g4349"
         inkscape:label="MajorYGridlines">
        <path
           id="path4351"
           d="m 0,90 360,0"
           style="fill:none;stroke:#000000;stroke-width:1"
           inkscape:label="MajorYDiv1"
           inkscape:connector-curvature="0" />
        <path
           id="path4353"
           d="m 0,180 360,0"
           style="fill:none;stroke:#000000;stroke-width:1"
           inkscape:label="MajorYDiv2"
           inkscape:connector-curvature="0" />
        <path
           id="path4355"
           d="m 0,270 360,0"
           style="fill:none;stroke:#000000;stroke-width:1"
           inkscape:label="MajorYDiv3"
           inkscape:connector-curvature="0" />
      </g>
      <rect
         id="rect4357"
         x="0"
         y="0"
         inkscape:label="Border"
         height="360"
         width="360"
         style="fill:none;stroke:#000000;stroke-width:2" />
    </g>
    <g
       transform="matrix(1.2773606,0,0,1.2773606,24.562082,636.12534)"
       id="g4427">
      <g
         style="font-style:normal;font-variant:normal;font-weight:normal;font-stretch:normal;letter-spacing:normal;word-spacing:normal;text-anchor:start;fill:none;fill-opacity:1;fill-rule:evenodd;stroke:#000000;stroke-linecap:butt;stroke-linejoin:miter;stroke-miterlimit:10.43299961;stroke-dasharray:none;stroke-dashoffset:0;stroke-opacity:1"
         id="g4816"
         transform="matrix(0.57142857,0,0,-0.57142857,-100,450)"
         xml:space="preserve"
         stroke-miterlimit="10.433"
         font-style="normal"
         font-variant="normal"
         font-weight="normal"
         font-stretch="normal"
         font-size-adjust="none"
         letter-spacing="normal"
         word-spacing="normal"><path
           style="fill:#000000;stroke-width:0"
           inkscape:connector-curvature="0"
           d="m 465.08,418.65 0,0.14 -0.01,0.13 -0.02,0.13 -0.02,0.13 -0.03,0.13 -0.04,0.13 -0.04,0.12 -0.05,0.12 -0.05,0.11 -0.06,0.12 -0.06,0.11 -0.07,0.11 -0.07,0.1 -0.08,0.1 -0.09,0.1 -0.08,0.09 -0.1,0.08 -0.09,0.09 -0.1,0.08 -0.1,0.07 -0.11,0.07 -0.11,0.06 -0.12,0.06 -0.11,0.05 -0.12,0.05 -0.13,0.04 -0.12,0.04 -0.13,0.03 -0.13,0.02 -0.13,0.02 -0.13,0.01 -0.14,0 c -1.44,0 -2.64,-1.18 -2.64,-2.64 0,-1.44 1.2,-2.64 2.64,-2.64 1.45,0 2.64,1.2 2.64,2.64 z"
           id="path4430" /></g>    </g>
    <g
       id="g4506"
       transform="translate(221.42857,695.71429)">
      <g
         word-spacing="normal"
         letter-spacing="normal"
         font-size-adjust="none"
         font-stretch="normal"
         font-weight="normal"
         font-variant="normal"
         font-style="normal"
         stroke-miterlimit="10.433"
         xml:space="preserve"
         transform="matrix(0.57142857,0,0,-0.57142857,-100,450)"
         id="g4508"
         style="font-style:normal;font-variant:normal;font-weight:normal;font-stretch:normal;letter-spacing:normal;word-spacing:normal;text-anchor:start;fill:none;fill-opacity:1;fill-rule:evenodd;stroke:#000000;stroke-linecap:butt;stroke-linejoin:miter;stroke-miterlimit:10.43299961;stroke-dasharray:none;stroke-dashoffset:0;stroke-opacity:1"><path
           id="path4510"
           d="m 489.75,422.5 0.14,0 0.15,0 0.14,0 0.07,0.01 0.08,0 0.07,0.01 0.07,0.01 0.07,0.01 0.07,0.01 0.07,0.01 0.06,0.02 0.07,0.02 0.06,0.02 0.06,0.02 0.06,0.03 0.06,0.03 0.05,0.04 0.05,0.03 0.05,0.05 0.04,0.04 0.04,0.05 0.02,0.03 0.02,0.03 0.01,0.02 0.02,0.03 0.01,0.03 0.02,0.04 0.01,0.03 0.01,0.04 0.01,0.03 0.01,0.04 0,0.04 0.01,0.04 0,0.04 0.01,0.04 0,0.04 0,0.05 c 0,1 -0.95,1 -1.64,1 l -29.84,0 c -0.71,0 -1.64,0 -1.64,-1 0,-0.98 0.93,-0.98 1.68,-0.98 z"
           inkscape:connector-curvature="0"
           style="fill:#000000;stroke-width:0" /><path
           id="path4512"
           d="m 489.8,412.82 0.07,0 0.06,0 0.14,0.01 0.14,0 0.07,0 0.07,0.01 0.07,0.01 0.07,0 0.06,0.01 0.07,0.02 0.07,0.01 0.06,0.02 0.07,0.02 0.06,0.02 0.06,0.02 0.06,0.03 0.05,0.03 0.05,0.04 0.05,0.04 0.05,0.04 0.04,0.05 0.02,0.02 0.02,0.03 0.02,0.02 0.02,0.03 0.01,0.03 0.02,0.03 0.01,0.03 0.02,0.03 0.01,0.04 0.01,0.03 0.01,0.04 0.01,0.04 0,0.04 0.01,0.04 0,0.04 0.01,0.04 0,0.05 0,0.04 c 0,1 -0.95,1 -1.69,1 l -29.75,0 c -0.75,0 -1.68,0 -1.68,-1 0,-1 0.93,-1 1.64,-1 z"
           inkscape:connector-curvature="0"
           style="fill:#000000;stroke-width:0" /></g>    </g>
    <text
       xml:space="preserve"
       style="font-style:normal;font-weight:normal;font-size:40px;line-height:125%;font-family:sans-serif;letter-spacing:0px;word-spacing:0px;fill:#000000;fill-opacity:1;stroke:none;stroke-width:1px;stroke-linecap:butt;stroke-linejoin:miter;stroke-opacity:1"
       x="160"
       y="1010.9336"
       id="text4554"
       sodipodi:linespacing="125%"><tspan
         sodipodi:role="line"
         id="tspan4556"
         x="160"
         y="1010.9336" /></text>
    <g
       transform="matrix(0.84885133,0,0,0.84885133,-60.646927,684.76635)"
       id="g4602">
      <g
         style="font-style:normal;font-variant:normal;font-weight:normal;font-stretch:normal;letter-spacing:normal;word-spacing:normal;text-anchor:start;fill:none;fill-opacity:1;fill-rule:evenodd;stroke:#000000;stroke-linecap:butt;stroke-linejoin:miter;stroke-miterlimit:10.43299961;stroke-dasharray:none;stroke-dashoffset:0;stroke-opacity:1"
         id="g4604"
         transform="matrix(0.57142857,0,0,-0.57142857,-101.68295,450)"
         xml:space="preserve"
         stroke-miterlimit="10.433"
         font-style="normal"
         font-variant="normal"
         font-weight="normal"
         font-stretch="normal"
         font-size-adjust="none"
         letter-spacing="normal"
         word-spacing="normal"><path
           style="fill:#000000;stroke-width:0"
           inkscape:connector-curvature="0"
           d="m 472.16,421.25 0.03,0.13 0.04,0.15 0.04,0.16 0.04,0.18 0.06,0.19 0.06,0.21 0.06,0.22 0.07,0.22 0.08,0.23 0.09,0.24 0.1,0.25 0.1,0.24 0.11,0.25 0.12,0.25 0.13,0.25 0.14,0.25 0.15,0.24 0.15,0.24 0.17,0.23 0.18,0.22 0.18,0.22 0.2,0.2 0.21,0.19 0.22,0.18 0.23,0.16 0.25,0.14 0.12,0.07 0.13,0.06 0.14,0.05 0.13,0.05 0.14,0.05 0.14,0.04 0.15,0.03 0.15,0.03 0.15,0.02 0.16,0.02 0.16,0.01 0.16,0 c 0.25,0 1.44,0 2.48,-0.64 -1.39,-0.25 -2.39,-1.5 -2.39,-2.69 0,-0.79 0.55,-1.75 1.89,-1.75 1.1,0 2.69,0.89 2.69,2.89 0,2.6 -2.94,3.28 -4.63,3.28 -2.89,0 -4.64,-2.64 -5.23,-3.78 -1.25,3.28 -3.94,3.78 -5.37,3.78 -5.19,0 -8.04,-6.42 -8.04,-7.67 0,-0.5 0.5,-0.5 0.61,-0.5 0.39,0 0.55,0.11 0.64,0.55 1.69,5.28 4.99,6.53 6.68,6.53 0.95,0 2.68,-0.44 2.68,-3.33 0,-1.54 -0.84,-4.89 -2.68,-11.86 -0.8,-3.09 -2.54,-5.18 -4.74,-5.18 -0.3,0 -1.44,0 -2.48,0.65 1.25,0.24 2.34,1.28 2.34,2.69 0,1.34 -1.09,1.73 -1.84,1.73 -1.5,0 -2.75,-1.29 -2.75,-2.89 0,-2.28 2.5,-3.28 4.68,-3.28 3.3,0 5.08,3.49 5.24,3.78 0.59,-1.84 2.39,-3.78 5.37,-3.78 5.14,0 7.99,6.42 7.99,7.67 0,0.5 -0.45,0.5 -0.61,0.5 -0.44,0 -0.55,-0.2 -0.64,-0.54 -1.64,-5.33 -5.03,-6.53 -6.63,-6.53 -1.95,0 -2.75,1.59 -2.75,3.29 0,1.1 0.3,2.19 0.86,4.38 z"
           id="path4606" /></g>    </g>
    <rect
       y="803.07642"
       x="102.14285"
       height="81.428574"
       width="40.357143"
       id="rect4740"
       style="opacity:0.72399998;fill:#28ff80;fill-opacity:0.52549022;stroke:none;stroke-width:2;stroke-linecap:butt;stroke-linejoin:round;stroke-miterlimit:4;stroke-dasharray:none;stroke-dashoffset:0;stroke-opacity:1" />
    <rect
       y="803.07642"
       x="61.07143"
       height="41.07143"
       width="40.714287"
       id="rect4742"
       style="opacity:0.72399998;fill:#28ff80;fill-opacity:0.52549022;stroke:none;stroke-width:2;stroke-linecap:butt;stroke-linejoin:round;stroke-miterlimit:4;stroke-dasharray:none;stroke-dashoffset:0;stroke-opacity:1" />
  </g>
</svg>
