<?xml version="1.0" encoding="UTF-8" standalone="no"?>
<!-- Created with Inkscape (http://www.inkscape.org/) -->

<svg
   xmlns:dc="http://purl.org/dc/elements/1.1/"
   xmlns:cc="http://creativecommons.org/ns#"
   xmlns:rdf="http://www.w3.org/1999/02/22-rdf-syntax-ns#"
   xmlns:svg="http://www.w3.org/2000/svg"
   xmlns="http://www.w3.org/2000/svg"
   xmlns:sodipodi="http://sodipodi.sourceforge.net/DTD/sodipodi-0.dtd"
   xmlns:inkscape="http://www.inkscape.org/namespaces/inkscape"
   inkscape:version="0.91 r13725"
   version="1.1"
   id="svg2"
   viewBox="0 0 900.00001 450.00001"
   height="450"
   width="900"
   sodipodi:docname="fig_convolution.svg">
  <sodipodi:namedview
     inkscape:window-maximized="0"
     inkscape:window-y="66"
     inkscape:window-x="66"
     inkscape:window-height="871"
     inkscape:window-width="1048"
     units="px"
     showgrid="false"
     inkscape:current-layer="layer2"
     inkscape:document-units="px"
     inkscape:cy="72.842305"
     inkscape:cx="256.45121"
     inkscape:zoom="0.49497475"
     inkscape:pageshadow="2"
     inkscape:pageopacity="0.0"
     borderopacity="1.0"
     bordercolor="#666666"
     pagecolor="#ffffff"
     id="base" />
  <defs
     id="defs4" />
  <metadata
     id="metadata7">
    <rdf:RDF>
      <cc:Work
         rdf:about="">
        <dc:format>image/svg+xml</dc:format>
        <dc:type
           rdf:resource="http://purl.org/dc/dcmitype/StillImage" />
        <dc:title></dc:title>
      </cc:Work>
    </rdf:RDF>
  </metadata>
  <g
     inkscape:groupmode="layer"
     id="layer2"
     inkscape:label="color"
     transform="translate(0,-50)">
    <rect
       style="opacity:1;fill:#2affd5;fill-opacity:1;stroke:none;stroke-width:3;stroke-linecap:butt;stroke-linejoin:round;stroke-miterlimit:4;stroke-dasharray:none;stroke-dashoffset:0;stroke-opacity:1"
       id="rect4637"
       width="167.18025"
       height="165.15994"
       x="44.446712"
       y="106.34253" />
    <rect
       style="opacity:1;fill:#2affd5;fill-opacity:1;stroke:none;stroke-width:3;stroke-linecap:butt;stroke-linejoin:round;stroke-miterlimit:4;stroke-dasharray:none;stroke-dashoffset:0;stroke-opacity:1"
       id="rect4637-6"
       width="164.3231"
       height="164.8028"
       x="416.40988"
       y="185.99146" />
    <rect
       style="opacity:1;fill:#ff9955;fill-opacity:1;stroke:none;stroke-width:3;stroke-linecap:butt;stroke-linejoin:round;stroke-miterlimit:4;stroke-dasharray:none;stroke-dashoffset:0;stroke-opacity:1"
       id="rect4654"
       width="55.338669"
       height="55.06818"
       x="101.01525"
       y="161.45712" />
    <rect
       style="opacity:1;fill:#ff9955;fill-opacity:1;stroke:none;stroke-width:3;stroke-linecap:butt;stroke-linejoin:round;stroke-miterlimit:4;stroke-dasharray:none;stroke-dashoffset:0;stroke-opacity:1"
       id="rect4654-9"
       width="54.445812"
       height="54.179688"
       x="471.61639"
       y="241.75162" />
    <g
       transform="translate(-82.832509,-186.07112)"
       id="g4680">
      <g
         style="font-style:normal;font-variant:normal;font-weight:normal;font-stretch:normal;letter-spacing:normal;word-spacing:normal;text-anchor:start;fill:none;fill-opacity:1;fill-rule:evenodd;stroke:#000000;stroke-linecap:butt;stroke-linejoin:miter;stroke-miterlimit:10.43299961;stroke-dasharray:none;stroke-dashoffset:0;stroke-opacity:1"
         id="content"
         transform="matrix(0.71428571,0,0,-0.71428571,-125,675)"
         xml:space="preserve"
         stroke-miterlimit="10.433"
         font-style="normal"
         font-variant="normal"
         font-weight="normal"
         font-stretch="normal"
         font-size-adjust="none"
         letter-spacing="normal"
         word-spacing="normal"><path
           style="fill:#000000;stroke-width:0"
           inkscape:connector-curvature="0"
           d="m 472.16,421.25 0.03,0.13 0.04,0.15 0.04,0.16 0.04,0.18 0.06,0.19 0.06,0.21 0.06,0.22 0.07,0.22 0.08,0.23 0.09,0.24 0.1,0.25 0.1,0.24 0.11,0.25 0.12,0.25 0.13,0.25 0.14,0.25 0.15,0.24 0.15,0.24 0.17,0.23 0.18,0.22 0.18,0.22 0.2,0.2 0.21,0.19 0.22,0.18 0.23,0.16 0.25,0.14 0.12,0.07 0.13,0.06 0.14,0.05 0.13,0.05 0.14,0.05 0.14,0.04 0.15,0.03 0.15,0.03 0.15,0.02 0.16,0.02 0.16,0.01 0.16,0 c 0.25,0 1.44,0 2.48,-0.64 -1.39,-0.25 -2.39,-1.5 -2.39,-2.69 0,-0.79 0.55,-1.75 1.89,-1.75 1.1,0 2.69,0.89 2.69,2.89 0,2.6 -2.94,3.28 -4.63,3.28 -2.89,0 -4.64,-2.64 -5.23,-3.78 -1.25,3.28 -3.94,3.78 -5.37,3.78 -5.19,0 -8.04,-6.42 -8.04,-7.67 0,-0.5 0.5,-0.5 0.61,-0.5 0.39,0 0.55,0.11 0.64,0.55 1.69,5.28 4.99,6.53 6.68,6.53 0.95,0 2.68,-0.44 2.68,-3.33 0,-1.54 -0.84,-4.89 -2.68,-11.86 -0.8,-3.09 -2.54,-5.18 -4.74,-5.18 -0.3,0 -1.44,0 -2.48,0.65 1.25,0.24 2.34,1.28 2.34,2.69 0,1.34 -1.09,1.73 -1.84,1.73 -1.5,0 -2.75,-1.29 -2.75,-2.89 0,-2.28 2.5,-3.28 4.68,-3.28 3.3,0 5.08,3.49 5.24,3.78 0.59,-1.84 2.39,-3.78 5.37,-3.78 5.14,0 7.99,6.42 7.99,7.67 0,0.5 -0.45,0.5 -0.61,0.5 -0.44,0 -0.55,-0.2 -0.64,-0.54 -1.64,-5.33 -5.03,-6.53 -6.63,-6.53 -1.95,0 -2.75,1.59 -2.75,3.29 0,1.1 0.3,2.19 0.86,4.38 z"
           id="path4683" /></g>    </g>
    <g
       id="g4809"
       transform="translate(463.66003,-187.08128)">
      <g
         word-spacing="normal"
         letter-spacing="normal"
         font-size-adjust="none"
         font-stretch="normal"
         font-weight="normal"
         font-variant="normal"
         font-style="normal"
         stroke-miterlimit="10.433"
         xml:space="preserve"
         transform="matrix(0.71428571,0,0,-0.71428571,-125,675)"
         id="g4811"
         style="font-style:normal;font-variant:normal;font-weight:normal;font-stretch:normal;letter-spacing:normal;word-spacing:normal;text-anchor:start;fill:none;fill-opacity:1;fill-rule:evenodd;stroke:#000000;stroke-linecap:butt;stroke-linejoin:miter;stroke-miterlimit:10.43299961;stroke-dasharray:none;stroke-dashoffset:0;stroke-opacity:1"><path
           id="path4813"
           d="m 472.16,421.25 0.03,0.13 0.04,0.15 0.04,0.16 0.04,0.18 0.06,0.19 0.06,0.21 0.06,0.22 0.07,0.22 0.08,0.23 0.09,0.24 0.1,0.25 0.1,0.24 0.11,0.25 0.12,0.25 0.13,0.25 0.14,0.25 0.15,0.24 0.15,0.24 0.17,0.23 0.18,0.22 0.18,0.22 0.2,0.2 0.21,0.19 0.22,0.18 0.23,0.16 0.25,0.14 0.12,0.07 0.13,0.06 0.14,0.05 0.13,0.05 0.14,0.05 0.14,0.04 0.15,0.03 0.15,0.03 0.15,0.02 0.16,0.02 0.16,0.01 0.16,0 c 0.25,0 1.44,0 2.48,-0.64 -1.39,-0.25 -2.39,-1.5 -2.39,-2.69 0,-0.79 0.55,-1.75 1.89,-1.75 1.1,0 2.69,0.89 2.69,2.89 0,2.6 -2.94,3.28 -4.63,3.28 -2.89,0 -4.64,-2.64 -5.23,-3.78 -1.25,3.28 -3.94,3.78 -5.37,3.78 -5.19,0 -8.04,-6.42 -8.04,-7.67 0,-0.5 0.5,-0.5 0.61,-0.5 0.39,0 0.55,0.11 0.64,0.55 1.69,5.28 4.99,6.53 6.68,6.53 0.95,0 2.68,-0.44 2.68,-3.33 0,-1.54 -0.84,-4.89 -2.68,-11.86 -0.8,-3.09 -2.54,-5.18 -4.74,-5.18 -0.3,0 -1.44,0 -2.48,0.65 1.25,0.24 2.34,1.28 2.34,2.69 0,1.34 -1.09,1.73 -1.84,1.73 -1.5,0 -2.75,-1.29 -2.75,-2.89 0,-2.28 2.5,-3.28 4.68,-3.28 3.3,0 5.08,3.49 5.24,3.78 0.59,-1.84 2.39,-3.78 5.37,-3.78 5.14,0 7.99,6.42 7.99,7.67 0,0.5 -0.45,0.5 -0.61,0.5 -0.44,0 -0.55,-0.2 -0.64,-0.54 -1.64,-5.33 -5.03,-6.53 -6.63,-6.53 -1.95,0 -2.75,1.59 -2.75,3.29 0,1.1 0.3,2.19 0.86,4.38 z"
           inkscape:connector-curvature="0"
           style="fill:#000000;stroke-width:0" /><path
           id="path4815"
           d="m 494.07,440.65 0.03,0.06 0.02,0.05 0.02,0.05 0.02,0.05 0.02,0.04 0.02,0.05 0.02,0.04 0.02,0.04 0.01,0.05 0.02,0.04 0.01,0.03 0.01,0.04 0.01,0.04 0.01,0.03 0.01,0.04 0.01,0.03 0.01,0.03 0.01,0.03 0,0.03 0.01,0.03 0,0.03 0.01,0.03 0,0.03 0,0.02 0.01,0.06 0,0.05 0,0.04 0,0.05 c 0,1.08 -0.98,1.92 -2.06,1.92 -1.33,0 -1.73,-1.09 -1.91,-1.64 l -4.61,-15.09 c -0.03,-0.06 -0.17,-0.52 -0.17,-0.56 0,-0.41 1.08,-0.77 1.36,-0.77 0.25,0 0.28,0.08 0.52,0.59 z"
           inkscape:connector-curvature="0"
           style="fill:#000000;stroke-width:0" /></g>    </g>
  </g>
  <g
     inkscape:label="Layer 1"
     inkscape:groupmode="layer"
     id="layer1"
     transform="translate(0,-602.36216)">
    <g
       id="g4197"
       transform="matrix(0.61518187,0,0,0.61518187,45.78167,658.35906)"
       inkscape:label="Grid_Polar:X6:Y6">
      <g
         id="g4199"
         inkscape:label="MajorXGridlines">
        <path
           id="path4201"
           d="m 90,0 0,540"
           style="fill:none;stroke:#000000;stroke-width:1"
           inkscape:label="MajorXDiv1"
           inkscape:connector-curvature="0" />
        <path
           id="path4203"
           d="m 180,0 0,540"
           style="fill:none;stroke:#000000;stroke-width:1"
           inkscape:label="MajorXDiv2"
           inkscape:connector-curvature="0" />
        <path
           id="path4205"
           d="m 270,0 0,540"
           style="fill:none;stroke:#000000;stroke-width:1"
           inkscape:label="MajorXDiv3"
           inkscape:connector-curvature="0" />
        <path
           id="path4207"
           d="m 360,0 0,540"
           style="fill:none;stroke:#000000;stroke-width:1"
           inkscape:label="MajorXDiv4"
           inkscape:connector-curvature="0" />
        <path
           id="path4209"
           d="m 450,0 0,540"
           style="fill:none;stroke:#000000;stroke-width:1"
           inkscape:label="MajorXDiv5"
           inkscape:connector-curvature="0" />
      </g>
      <g
         id="g4211"
         inkscape:label="MajorYGridlines">
        <path
           id="path4213"
           d="m 0,90 540,0"
           style="fill:none;stroke:#000000;stroke-width:1"
           inkscape:label="MajorYDiv1"
           inkscape:connector-curvature="0" />
        <path
           id="path4215"
           d="m 0,180 540,0"
           style="fill:none;stroke:#000000;stroke-width:1"
           inkscape:label="MajorYDiv2"
           inkscape:connector-curvature="0" />
        <path
           id="path4217"
           d="m 0,270 540,0"
           style="fill:none;stroke:#000000;stroke-width:1"
           inkscape:label="MajorYDiv3"
           inkscape:connector-curvature="0" />
        <path
           id="path4219"
           d="m 0,360 540,0"
           style="fill:none;stroke:#000000;stroke-width:1"
           inkscape:label="MajorYDiv4"
           inkscape:connector-curvature="0" />
        <path
           id="path4221"
           d="m 0,450 540,0"
           style="fill:none;stroke:#000000;stroke-width:1"
           inkscape:label="MajorYDiv5"
           inkscape:connector-curvature="0" />
      </g>
      <rect
         id="rect4223"
         x="0"
         y="0"
         inkscape:label="Border"
         height="540"
         width="540"
         style="fill:none;stroke:#000000;stroke-width:2" />
    </g>
    <g
       inkscape:label="Grid_Polar:X4:Y4"
       transform="matrix(0.60962284,0,0,0.60962284,649.24074,714.54258)"
       id="g4339">
      <g
         inkscape:label="MajorXGridlines"
         id="g4341">
        <path
           inkscape:connector-curvature="0"
           inkscape:label="MajorXDiv1"
           style="fill:none;stroke:#000000;stroke-width:1"
           d="m 90,0 0,360"
           id="path4343" />
        <path
           inkscape:connector-curvature="0"
           inkscape:label="MajorXDiv2"
           style="fill:none;stroke:#000000;stroke-width:1"
           d="m 180,0 0,360"
           id="path4345" />
        <path
           inkscape:connector-curvature="0"
           inkscape:label="MajorXDiv3"
           style="fill:none;stroke:#000000;stroke-width:1"
           d="m 270,0 0,360"
           id="path4347" />
      </g>
      <g
         inkscape:label="MajorYGridlines"
         id="g4349">
        <path
           inkscape:connector-curvature="0"
           inkscape:label="MajorYDiv1"
           style="fill:none;stroke:#000000;stroke-width:1"
           d="m 0,90 360,0"
           id="path4351" />
        <path
           inkscape:connector-curvature="0"
           inkscape:label="MajorYDiv2"
           style="fill:none;stroke:#000000;stroke-width:1"
           d="m 0,180 360,0"
           id="path4353" />
        <path
           inkscape:connector-curvature="0"
           inkscape:label="MajorYDiv3"
           style="fill:none;stroke:#000000;stroke-width:1"
           d="m 0,270 360,0"
           id="path4355" />
      </g>
      <rect
         style="fill:none;stroke:#000000;stroke-width:2"
         width="360"
         height="360"
         inkscape:label="Border"
         y="0"
         x="0"
         id="rect4357" />
    </g>
    <g
       id="g4415"
       transform="matrix(0.60813985,0,0,0.60813985,416.60614,739.1513)"
       inkscape:label="Grid_Polar:X3:Y3">
      <g
         id="g4417"
         inkscape:label="MajorXGridlines">
        <path
           id="path4419"
           d="m 90,0 0,270"
           style="fill:none;stroke:#000000;stroke-width:1"
           inkscape:label="MajorXDiv1"
           inkscape:connector-curvature="0" />
        <path
           id="path4421"
           d="m 180,0 0,270"
           style="fill:none;stroke:#000000;stroke-width:1"
           inkscape:label="MajorXDiv2"
           inkscape:connector-curvature="0" />
      </g>
      <g
         id="g4423"
         inkscape:label="MajorYGridlines">
        <path
           id="path4425"
           d="m 0,90 270,0"
           style="fill:none;stroke:#000000;stroke-width:1"
           inkscape:label="MajorYDiv1"
           inkscape:connector-curvature="0" />
        <path
           id="path4427"
           d="m 0,180 270,0"
           style="fill:none;stroke:#000000;stroke-width:1"
           inkscape:label="MajorYDiv2"
           inkscape:connector-curvature="0" />
      </g>
      <rect
         id="rect4429"
         x="0"
         y="0"
         inkscape:label="Border"
         height="270"
         width="270"
         style="fill:none;stroke:#000000;stroke-width:2" />
    </g>
    <g
       id="g4503"
       transform="translate(188,457.85715)">
      <g
         id="g4719"
         transform="matrix(0.71428571,0,0,-0.71428571,-125,675)"
         xml:space="preserve"
         stroke-miterlimit="10.433"
         font-style="normal"
         font-variant="normal"
         font-weight="normal"
         font-stretch="normal"
         font-size-adjust="none"
         letter-spacing="normal"
         word-spacing="normal"
         style="font-style:normal;font-variant:normal;font-weight:normal;font-stretch:normal;letter-spacing:normal;word-spacing:normal;text-anchor:start;fill:none;fill-opacity:1;fill-rule:evenodd;stroke:#000000;stroke-linecap:butt;stroke-linejoin:miter;stroke-miterlimit:10.43299961;stroke-dasharray:none;stroke-dashoffset:0;stroke-opacity:1"><path
           d="m 468.52,431.81 0.24,-0.17 0.24,-0.18 0.25,-0.18 0.26,-0.18 0.52,-0.38 0.52,-0.39 0.53,-0.38 0.52,-0.39 0.51,-0.37 0.25,-0.19 0.25,-0.17 0.23,-0.18 0.23,-0.17 0.22,-0.16 0.21,-0.15 0.2,-0.15 0.19,-0.14 0.18,-0.13 0.17,-0.12 0.15,-0.11 0.14,-0.11 0.12,-0.08 0.11,-0.08 0.09,-0.07 0.07,-0.05 0.03,-0.02 0.02,-0.01 0.02,-0.02 0.01,-0.01 c 0.25,-0.15 0.39,-0.29 0.8,-0.29 0.8,0 1.34,0.75 1.34,1.39 0,0.54 -0.2,0.95 -1.04,1.34 l -7.03,3.3 6.93,3.28 c 0.94,0.45 1.14,0.8 1.14,1.39 0,0.66 -0.54,1.41 -1.34,1.41 -0.36,0 -0.45,0 -1.75,-0.96 l -5.53,-4.07 0.75,8.46 c 0,0.75 -0.64,1.24 -1.3,1.24 -0.79,0 -1.34,-0.6 -1.34,-1.24 0,-0.5 0.66,-7.37 0.75,-8.46 l -6.19,4.48 c -0.69,0.55 -0.8,0.55 -1.09,0.55 -0.8,0 -1.35,-0.75 -1.35,-1.41 0,-0.55 0.21,-0.94 1.05,-1.34 l 7.03,-3.28 -6.92,-3.3 c -0.95,-0.44 -1.16,-0.8 -1.16,-1.39 0,-0.1 0,-1.39 1.64,-1.39 l 6.99,5.03 -0.75,-8.47 c 0,-0.75 0.66,-1.25 1.3,-1.25 0.79,0 1.34,0.59 1.34,1.25 0,0.5 -0.64,7.37 -0.75,8.47 z"
           id="path4506"
           inkscape:connector-curvature="0"
           style="fill:#000000;stroke-width:0" /></g>    </g>
    <g
       id="g4586"
       transform="translate(399.57081,447.36632)">
      <g
         word-spacing="normal"
         letter-spacing="normal"
         font-size-adjust="none"
         font-stretch="normal"
         font-weight="normal"
         font-variant="normal"
         font-style="normal"
         stroke-miterlimit="10.433"
         xml:space="preserve"
         transform="matrix(0.71428571,0,0,-0.71428571,-125,675)"
         id="g4588"
         style="font-style:normal;font-variant:normal;font-weight:normal;font-stretch:normal;letter-spacing:normal;word-spacing:normal;text-anchor:start;fill:none;fill-opacity:1;fill-rule:evenodd;stroke:#000000;stroke-linecap:butt;stroke-linejoin:miter;stroke-miterlimit:10.43299961;stroke-dasharray:none;stroke-dashoffset:0;stroke-opacity:1"><path
           id="path4590"
           d="m 489.75,422.5 0.14,0 0.15,0 0.14,0 0.07,0.01 0.08,0 0.07,0.01 0.07,0.01 0.07,0.01 0.07,0.01 0.07,0.01 0.06,0.02 0.07,0.02 0.06,0.02 0.06,0.02 0.06,0.03 0.06,0.03 0.05,0.04 0.05,0.03 0.05,0.05 0.04,0.04 0.04,0.05 0.02,0.03 0.02,0.03 0.01,0.02 0.02,0.03 0.01,0.03 0.02,0.04 0.01,0.03 0.01,0.04 0.01,0.03 0.01,0.04 0,0.04 0.01,0.04 0,0.04 0.01,0.04 0,0.04 0,0.05 c 0,1 -0.95,1 -1.64,1 l -29.84,0 c -0.71,0 -1.64,0 -1.64,-1 0,-0.98 0.93,-0.98 1.68,-0.98 z"
           inkscape:connector-curvature="0"
           style="fill:#000000;stroke-width:0" /><path
           id="path4592"
           d="m 489.8,412.82 0.07,0 0.06,0 0.14,0.01 0.14,0 0.07,0 0.07,0.01 0.07,0.01 0.07,0 0.06,0.01 0.07,0.02 0.07,0.01 0.06,0.02 0.07,0.02 0.06,0.02 0.06,0.02 0.06,0.03 0.05,0.03 0.05,0.04 0.05,0.04 0.05,0.04 0.04,0.05 0.02,0.02 0.02,0.03 0.02,0.02 0.02,0.03 0.01,0.03 0.02,0.03 0.01,0.03 0.02,0.03 0.01,0.04 0.01,0.03 0.01,0.04 0.01,0.04 0,0.04 0.01,0.04 0,0.04 0.01,0.04 0,0.05 0,0.04 c 0,1 -0.95,1 -1.69,1 l -29.75,0 c -0.75,0 -1.68,0 -1.68,-1 0,-1 0.93,-1 1.64,-1 z"
           inkscape:connector-curvature="0"
           style="fill:#000000;stroke-width:0" /></g>    </g>
  </g>
</svg>
